HIERARCHY
ROOT newVegas:Hips
{
	OFFSET 0.000000 96.479958 0.000000
	CHANNELS 6 Xposition Yposition Zposition Xrotation Yrotation Zrotation
	JOINT newVegas:Pelvis
	{
		OFFSET 0.000000 0.000000 0.000000
		CHANNELS 3 Xrotation Yrotation Zrotation
		JOINT newVegas:LeftUpLeg
		{
			OFFSET 18.735201 -5.666702 -4.541200
			CHANNELS 3 Xrotation Yrotation Zrotation
			JOINT newVegas:LeftLeg
			{
				OFFSET -0.021200 -31.938179 0.493100
				CHANNELS 3 Xrotation Yrotation Zrotation
				JOINT newVegas:LeftFoot
				{
					OFFSET 0.021200 -31.938179 -4.336299
					CHANNELS 3 Xrotation Yrotation Zrotation
					JOINT newVegas:LeftToeBase
					{
						OFFSET 0.943001 -26.722000 15.023500
						CHANNELS 3 Xrotation Yrotation Zrotation
						End Site
						{
							OFFSET 0.000000 30.670183 0.000000
						}
					}
				}
				JOINT newVegas:Left_PantLeg
				{
					OFFSET 0.663870 -9.044666 -1.108900
					CHANNELS 3 Xrotation Yrotation Zrotation
					End Site
					{
						OFFSET 1.415995 20.635357 0.000000
					}
				}
			}
		}
		JOINT newVegas:RightUpLeg
		{
			OFFSET -18.735201 -5.666702 -4.541200
			CHANNELS 3 Xrotation Yrotation Zrotation
			JOINT newVegas:RightLeg
			{
				OFFSET 0.018946 -31.938133 0.493100
				CHANNELS 3 Xrotation Yrotation Zrotation
				JOINT newVegas:RightFoot
				{
					OFFSET -0.018946 -31.938126 -4.336299
					CHANNELS 3 Xrotation Yrotation Zrotation
					JOINT newVegas:RightToeBase
					{
						OFFSET -0.943001 -26.722004 15.023500
						CHANNELS 3 Xrotation Yrotation Zrotation
						End Site
						{
							OFFSET 0.000000 30.670187 0.000000
						}
					}
				}
				JOINT newVegas:Right_PantLeg
				{
					OFFSET -0.661674 -9.044716 -1.108900
					CHANNELS 3 Xrotation Yrotation Zrotation
					End Site
					{
						OFFSET -1.415958 20.635269 0.000000
					}
				}
			}
		}
	}
	JOINT newVegas:Spine
	{
		OFFSET 0.000000 10.199997 -0.299500
		CHANNELS 3 Xrotation Yrotation Zrotation
		JOINT newVegas:Spine1
		{
			OFFSET 0.000000 11.900002 -1.516600
			CHANNELS 3 Xrotation Yrotation Zrotation
			JOINT newVegas:Spine2
			{
				OFFSET 0.000000 13.600006 -2.842500
				CHANNELS 3 Xrotation Yrotation Zrotation
				JOINT newVegas:Neck
				{
					OFFSET 0.000000 9.624100 -2.890100
					CHANNELS 3 Xrotation Yrotation Zrotation
					JOINT newVegas:Head
					{
						OFFSET 0.000000 14.068802 -1.351900
						CHANNELS 3 Xrotation Yrotation Zrotation
						JOINT newVegas:Hair_Back
						{
							OFFSET 0.000000 3.231903 -17.524799
							CHANNELS 3 Xrotation Yrotation Zrotation
							End Site
							{
								OFFSET 0.000000 19.849884 0.000000
							}
						}
						JOINT newVegas:Hair_Front
						{
							OFFSET 0.000000 31.260406 4.573800
							CHANNELS 3 Xrotation Yrotation Zrotation
							JOINT newVegas:Hair_Front1
							{
								OFFSET 0.000000 2.284103 11.993300
								CHANNELS 3 Xrotation Yrotation Zrotation
								JOINT newVegas:Hair_Front2
								{
									OFFSET 0.000000 2.284103 11.993300
									CHANNELS 3 Xrotation Yrotation Zrotation
									End Site
									{
										OFFSET 0.000000 12.208862 0.000000
									}
								}
							}
						}
						JOINT newVegas:Jowel
						{
							OFFSET 0.000000 -7.458206 6.864100
							CHANNELS 3 Xrotation Yrotation Zrotation
							End Site
							{
								OFFSET 0.000000 19.849884 0.000000
							}
						}
					}
				}
				JOINT newVegas:LeftShoulder
				{
					OFFSET 15.263000 10.923401 -0.547700
					CHANNELS 3 Xrotation Yrotation Zrotation
					JOINT newVegas:LeftArm
					{
						OFFSET 25.438599 -2.830597 -13.032500
						CHANNELS 3 Xrotation Yrotation Zrotation
						JOINT newVegas:LeftForeArm
						{
							OFFSET 29.960503 0.000000 0.000000
							CHANNELS 3 Xrotation Yrotation Zrotation
							JOINT newVegas:LeftHand
							{
								OFFSET 27.849251 0.000000 0.000000
								CHANNELS 3 Xrotation Yrotation Zrotation
								JOINT newVegas:LeftHandThumb1
								{
									OFFSET 4.487587 -3.305161 6.305391
									CHANNELS 3 Xrotation Yrotation Zrotation
									JOINT newVegas:LeftHandThumb2
									{
										OFFSET 5.480453 -3.164139 3.164143
										CHANNELS 3 Xrotation Yrotation Zrotation
										JOINT newVegas:LeftHandThumb3
										{
											OFFSET 5.159721 -2.978973 2.978967
											CHANNELS 3 Xrotation Yrotation Zrotation
											End Site
											{
												OFFSET 2.494507 5.926697 1.738678
											}
										}
									}
								}
								JOINT newVegas:LeftHandIndex1
								{
									OFFSET 18.578728 -0.527832 5.208049
									CHANNELS 3 Xrotation Yrotation Zrotation
									JOINT newVegas:LeftHandIndex2
									{
										OFFSET 3.192009 0.000000 0.000000
										CHANNELS 3 Xrotation Yrotation Zrotation
										JOINT newVegas:LeftHandIndex3
										{
											OFFSET 3.835129 0.000000 0.000000
											CHANNELS 3 Xrotation Yrotation Zrotation
											End Site
											{
												OFFSET -0.034599 3.816971 0.371180
											}
										}
									}
								}
								JOINT newVegas:LeftHandMiddle1
								{
									OFFSET 18.476105 0.000000 0.000000
									CHANNELS 3 Xrotation Yrotation Zrotation
									JOINT newVegas:LeftHandMiddle2
									{
										OFFSET 3.324875 0.000000 0.000000
										CHANNELS 3 Xrotation Yrotation Zrotation
										JOINT newVegas:LeftHandMiddle3
										{
											OFFSET 4.596550 0.000000 0.000000
											CHANNELS 3 Xrotation Yrotation Zrotation
											End Site
											{
												OFFSET 0.057701 4.578827 0.399218
											}
										}
									}
								}
								JOINT newVegas:LeftHandRing1
								{
									OFFSET 17.732719 0.121887 -4.201567
									CHANNELS 3 Xrotation Yrotation Zrotation
									JOINT newVegas:LeftHandRing2
									{
										OFFSET 2.733170 0.000000 0.000000
										CHANNELS 3 Xrotation Yrotation Zrotation
										JOINT newVegas:LeftHandRing3
										{
											OFFSET 3.178268 0.000000 0.000000
											CHANNELS 3 Xrotation Yrotation Zrotation
											End Site
											{
												OFFSET 0.119102 3.170624 0.185394
											}
										}
									}
								}
								JOINT newVegas:LeftHandPinky1
								{
									OFFSET 15.989624 -0.606689 -7.535461
									CHANNELS 3 Xrotation Yrotation Zrotation
									JOINT newVegas:LeftHandPinky2
									{
										OFFSET 2.538986 0.000000 0.000000
										CHANNELS 3 Xrotation Yrotation Zrotation
										JOINT newVegas:LeftHandPinky3
										{
											OFFSET 2.593102 0.000000 0.000000
											CHANNELS 3 Xrotation Yrotation Zrotation
											End Site
											{
												OFFSET -0.150902 2.584198 0.152708
											}
										}
									}
								}
							}
							JOINT newVegas:Left_Sleeve
							{
								OFFSET 0.267448 -0.649796 0.577675
								CHANNELS 3 Xrotation Yrotation Zrotation
								End Site
								{
									OFFSET 0.000000 15.991241 0.000000
								}
							}
							JOINT newVegas:Left_CapeC
							{
								OFFSET 15.715958 -8.608795 -6.935905
								CHANNELS 3 Xrotation Yrotation Zrotation
								JOINT newVegas:Left_CapeC1
								{
									OFFSET 0.000000 -8.688499 0.000000
									CHANNELS 3 Xrotation Yrotation Zrotation
									End Site
									{
										OFFSET 0.000000 8.688499 0.000000
									}
								}
							}
						}
						JOINT newVegas:Left_CapeB
						{
							OFFSET 26.118385 -8.608795 -7.079235
							CHANNELS 3 Xrotation Yrotation Zrotation
							JOINT newVegas:Left_CapeB1
							{
								OFFSET 0.000000 -8.688499 0.000000
								CHANNELS 3 Xrotation Yrotation Zrotation
								End Site
								{
									OFFSET 0.000000 8.688499 0.000000
								}
							}
						}
						JOINT newVegas:Left_CapeA
						{
							OFFSET 5.115639 -8.608795 -10.395809
							CHANNELS 3 Xrotation Yrotation Zrotation
							JOINT newVegas:Left_CapeA1
							{
								OFFSET 0.000000 -8.688499 0.000000
								CHANNELS 3 Xrotation Yrotation Zrotation
								End Site
								{
									OFFSET 0.000000 8.688499 0.000000
								}
							}
						}
					}
				}
				JOINT newVegas:RightShoulder
				{
					OFFSET -15.263000 10.923401 -0.547700
					CHANNELS 3 Xrotation Yrotation Zrotation
					JOINT newVegas:RightArm
					{
						OFFSET -25.438599 -2.830597 -13.032500
						CHANNELS 3 Xrotation Yrotation Zrotation
						JOINT newVegas:RightForeArm
						{
							OFFSET -29.960503 0.000000 0.000000
							CHANNELS 3 Xrotation Yrotation Zrotation
							JOINT newVegas:RightHand
							{
								OFFSET -27.849251 0.000000 0.000000
								CHANNELS 3 Xrotation Yrotation Zrotation
								JOINT newVegas:RightHandThumb1
								{
									OFFSET -4.487587 -3.305161 6.305391
									CHANNELS 3 Xrotation Yrotation Zrotation
									JOINT newVegas:RightHandThumb2
									{
										OFFSET -5.480453 -3.164139 3.164143
										CHANNELS 3 Xrotation Yrotation Zrotation
										JOINT newVegas:RightHandThumb3
										{
											OFFSET -5.159721 -2.978973 2.978967
											CHANNELS 3 Xrotation Yrotation Zrotation
											End Site
											{
												OFFSET -2.494507 5.926697 1.738678
											}
										}
									}
								}
								JOINT newVegas:RightHandIndex1
								{
									OFFSET -18.578728 -0.527832 5.208049
									CHANNELS 3 Xrotation Yrotation Zrotation
									JOINT newVegas:RightHandIndex2
									{
										OFFSET -3.192009 0.000000 0.000000
										CHANNELS 3 Xrotation Yrotation Zrotation
										JOINT newVegas:RightHandIndex3
										{
											OFFSET -3.835129 0.000000 0.000000
											CHANNELS 3 Xrotation Yrotation Zrotation
											End Site
											{
												OFFSET 0.034599 3.816971 0.371180
											}
										}
									}
								}
								JOINT newVegas:RightHandMiddle1
								{
									OFFSET -18.476105 0.000000 0.000000
									CHANNELS 3 Xrotation Yrotation Zrotation
									JOINT newVegas:RightHandMiddle2
									{
										OFFSET -3.324875 0.000000 0.000000
										CHANNELS 3 Xrotation Yrotation Zrotation
										JOINT newVegas:RightHandMiddle3
										{
											OFFSET -4.596550 0.000000 0.000000
											CHANNELS 3 Xrotation Yrotation Zrotation
											End Site
											{
												OFFSET -0.057701 4.578827 0.399218
											}
										}
									}
								}
								JOINT newVegas:RightHandRing1
								{
									OFFSET -17.732719 0.121887 -4.201567
									CHANNELS 3 Xrotation Yrotation Zrotation
									JOINT newVegas:RightHandRing2
									{
										OFFSET -2.733170 0.000000 0.000000
										CHANNELS 3 Xrotation Yrotation Zrotation
										JOINT newVegas:RightHandRing3
										{
											OFFSET -3.178268 0.000000 0.000000
											CHANNELS 3 Xrotation Yrotation Zrotation
											End Site
											{
												OFFSET -0.119102 3.170624 0.185394
											}
										}
									}
								}
								JOINT newVegas:RightHandPinky1
								{
									OFFSET -15.989624 -0.606689 -7.535461
									CHANNELS 3 Xrotation Yrotation Zrotation
									JOINT newVegas:RightHandPinky2
									{
										OFFSET -2.538986 0.000000 0.000000
										CHANNELS 3 Xrotation Yrotation Zrotation
										JOINT newVegas:RightHandPinky3
										{
											OFFSET -2.593102 0.000000 0.000000
											CHANNELS 3 Xrotation Yrotation Zrotation
											End Site
											{
												OFFSET 0.150902 2.584198 0.152708
											}
										}
									}
								}
							}
							JOINT newVegas:Right_CapeC
							{
								OFFSET -15.715958 -8.608795 -6.935905
								CHANNELS 3 Xrotation Yrotation Zrotation
								JOINT newVegas:Right_CapeC1
								{
									OFFSET 0.000000 -8.688499 0.000000
									CHANNELS 3 Xrotation Yrotation Zrotation
									End Site
									{
										OFFSET 0.000000 8.688499 0.000000
									}
								}
							}
							JOINT newVegas:Right_Sleeve
							{
								OFFSET -0.267448 -0.649994 0.577675
								CHANNELS 3 Xrotation Yrotation Zrotation
								End Site
								{
									OFFSET 0.000000 15.991302 0.000000
								}
							}
						}
						JOINT newVegas:Right_CapeA
						{
							OFFSET -5.115540 -8.608795 -10.395824
							CHANNELS 3 Xrotation Yrotation Zrotation
							JOINT newVegas:Right_CapeA1
							{
								OFFSET 0.000000 -8.688499 0.000000
								CHANNELS 3 Xrotation Yrotation Zrotation
								End Site
								{
									OFFSET 0.000000 8.688499 0.000000
								}
							}
						}
						JOINT newVegas:Right_CapeB
						{
							OFFSET -26.118187 -8.608795 -7.079266
							CHANNELS 3 Xrotation Yrotation Zrotation
							JOINT newVegas:Right_CapeB1
							{
								OFFSET 0.000000 -8.688499 0.000000
								CHANNELS 3 Xrotation Yrotation Zrotation
								End Site
								{
									OFFSET 0.000000 8.688499 0.000000
								}
							}
						}
					}
				}
				JOINT newVegas:Left_Collar
				{
					OFFSET 18.625099 8.655502 8.828100
					CHANNELS 3 Xrotation Yrotation Zrotation
					JOINT newVegas:Left_Collar1
					{
						OFFSET 14.783401 10.540405 -1.259500
						CHANNELS 3 Xrotation Yrotation Zrotation
						End Site
						{
							OFFSET 0.000000 18.199875 0.000000
						}
					}
				}
				JOINT newVegas:Collar_Back
				{
					OFFSET 0.000000 15.630707 -20.132601
					CHANNELS 3 Xrotation Yrotation Zrotation
					End Site
					{
						OFFSET 0.000000 22.523010 0.000000
					}
				}
				JOINT newVegas:Left_Peck
				{
					OFFSET 17.239599 -5.132599 25.482599
					CHANNELS 3 Xrotation Yrotation Zrotation
					End Site
					{
						OFFSET 0.000000 22.523010 0.000000
					}
				}
				JOINT newVegas:Right_Peck
				{
					OFFSET -17.239599 -5.132202 25.482599
					CHANNELS 3 Xrotation Yrotation Zrotation
					End Site
					{
						OFFSET 0.000000 22.523010 0.000000
					}
				}
				JOINT newVegas:Right_Collar
				{
					OFFSET -18.625099 8.655792 8.828100
					CHANNELS 3 Xrotation Yrotation Zrotation
					JOINT newVegas:Right_Collar1
					{
						OFFSET -14.783401 10.539993 -1.259500
						CHANNELS 3 Xrotation Yrotation Zrotation
						End Site
						{
							OFFSET 0.000000 18.199631 0.000000
						}
					}
				}
			}
		}
		JOINT newVegas:Belly
		{
			OFFSET 0.000000 -6.540398 9.014299
			CHANNELS 3 Xrotation Yrotation Zrotation
			End Site
			{
				OFFSET 0.000000 11.566666 0.000000
			}
		}
	}
	JOINT newVegas:ElvisFacialAnim_Joint
	{
		OFFSET 1.000000 -95.330101 -8.825800
		CHANNELS 3 Xrotation Yrotation Zrotation
		End Site
		{
			OFFSET 0.000000 35.315800 0.000000
		}
	}
}
MOTION
Frames: 4
Frame Time: 0.033333
-1.035991 89.827599 2.755941 5.048376 -15.557778 0.313371 0.000000 -0.000001 0.000000 -39.840797 1.360509 11.200813 35.807943 4.187080 1.508286 0.114618 0.612363 -7.709941 0.000000 0.000000 -0.000000 0.000000 -0.000000 0.000001 -13.249310 -10.206487 -14.507645 32.033652 -5.746490 1.668623 -20.404027 -3.421055 13.641969 0.000000 -0.000001 0.000000 0.000000 -0.000003 0.000001 23.100198 4.232173 -0.406430 3.699075 1.240285 -0.840910 3.692185 1.313819 -0.845959 -2.535799 0.264609 0.436106 -2.535797 0.264608 0.436108 -0.000000 0.000000 -0.000000 -2.535714 0.264610 0.436106 -2.535793 0.264604 0.436109 0.000003 -0.000001 -0.000000 -0.000000 0.000000 -0.000000 7.812699 -20.949864 9.748534 -33.643524 -3.123685 -85.447155 -0.000001 -42.998254 -4.823174 -17.287036 -10.866567 -12.598984 -7.471169 1.860113 -7.166398 30.987004 27.310525 -4.510905 0.000002 -0.000007 -0.000004 -4.707376 11.366707 -75.214453 -0.816395 3.073984 -46.874635 0.000000 -0.000001 -0.000002 1.623344 16.580940 -84.691279 0.017998 0.022027 -72.884846 -0.000002 -0.000001 0.000000 -6.443153 23.132632 -76.210172 0.012869 0.975920 -51.002986 0.000001 0.000001 0.000000 -17.098974 22.128975 -43.123195 0.019712 0.026997 -78.662899 0.000001 -0.000001 -0.000003 0.000001 0.000000 0.000003 0.000001 0.000000 0.000003 0.000000 0.000000 0.000003 0.000000 -0.000001 -0.000001 0.000000 -0.000001 -0.000001 0.000000 -0.000001 -0.000001 -0.000001 -0.000001 -0.000001 13.916968 27.241163 -23.493050 -43.128779 -5.410742 84.810937 -0.000011 58.105246 5.766851 -18.214426 16.096533 8.636282 9.347178 2.810551 -11.364527 16.169049 -43.266007 15.843583 0.000002 -0.000003 0.000001 17.076793 -0.396540 31.924335 -0.204414 -0.284208 112.811564 -0.000000 0.000001 0.000000 9.205465 -5.035872 102.738066 0.014961 -0.019180 61.018519 0.000001 -0.000001 0.000000 5.569133 -8.935195 107.329101 0.547969 -0.005768 41.263710 -0.000000 0.000001 -0.000001 6.511262 -17.148271 98.228010 0.007418 -0.015726 43.845764 0.000000 0.000002 -0.000000 -0.000000 -0.000004 0.000001 -0.000000 -0.000001 -0.000001 -0.000000 -0.000004 0.000001 0.000000 0.000002 -0.000000 0.000000 0.000002 -0.000000 0.000000 0.000002 -0.000000 0.000000 0.000002 -0.000000 0.000003 -0.000000 0.000000 0.000003 -0.000000 0.000000 0.000003 -0.000000 0.000000 0.000003 -0.000000 0.000000 0.000003 -0.000000 0.000000 0.000003 -0.000000 0.000000 0.000003 -0.000000 0.000000 -0.000001 0.000000 -0.000001 0.000000 -0.000001 0.000000 
-0.864292 89.817413 2.601965 5.035051 -16.084612 0.405214 -0.000000 -0.000001 0.000000 -39.789643 1.366351 11.238228 35.909641 4.701128 1.355879 0.068842 0.600510 -7.639996 0.000000 0.000000 -0.000000 0.000000 -0.000000 0.000000 -13.972051 -10.214895 -14.742613 32.409364 -5.108187 1.371959 -20.232625 -3.398444 13.665960 0.000000 0.000001 -0.000000 0.000001 -0.000001 0.000000 23.111869 4.168337 -0.454411 3.810642 1.366968 -0.901109 3.787625 1.530307 -0.683580 -2.560076 0.274369 0.471459 -2.560075 0.274367 0.471459 0.000000 -0.000001 0.000000 -2.560073 0.274374 0.471456 -2.560075 0.274359 0.471462 0.000000 0.000000 -0.000000 0.000000 -0.000001 0.000001 7.530025 -20.882955 8.792864 -34.289448 -4.010598 -84.878652 0.000024 -42.833725 -5.176927 -19.197094 -11.910049 -11.216806 -7.471178 1.860107 -7.166402 30.270012 25.117657 -4.925940 0.000003 0.000001 -0.000001 -4.868928 10.797234 -68.268875 -0.934026 3.052050 -45.259528 -0.000001 -0.000002 0.000000 0.729836 16.739224 -78.208050 0.016420 0.021447 -68.610507 -0.000000 0.000001 -0.000000 -7.780800 22.959411 -71.292681 0.012081 0.975176 -48.242111 0.000000 -0.000001 -0.000001 -17.099179 22.128937 -41.938581 -0.520290 -0.639063 -73.487918 0.000001 -0.000002 0.000001 0.000000 -0.000003 -0.000000 0.000000 -0.000003 -0.000000 -0.000001 -0.000002 0.000000 0.000003 0.000001 -0.000000 0.000003 0.000001 -0.000000 0.000003 0.000001 -0.000000 0.000001 0.000001 -0.000001 13.794602 28.333039 -23.144540 -42.818060 -4.495082 82.879114 0.000024 58.881695 5.592183 -19.868988 15.016629 8.074682 9.347178 2.810550 -11.364531 16.169050 -43.266011 15.843587 0.000002 -0.000003 0.000001 17.076795 -0.396542 31.924335 -0.204412 -0.284207 112.811571 -0.000000 0.000000 -0.000000 9.205465 -5.035877 102.738073 0.014965 -0.019180 61.018519 0.000000 0.000002 0.000000 5.569136 -8.935194 107.329094 0.547968 -0.005770 41.263714 -0.000000 -0.000001 -0.000000 6.511267 -17.148272 98.228010 0.007421 -0.015721 43.845771 0.000002 0.000002 0.000001 0.000000 -0.000000 -0.000000 -0.000001 -0.000003 -0.000001 0.000000 -0.000001 0.000001 -0.000000 0.000002 -0.000000 -0.000000 0.000002 -0.000000 -0.000000 0.000002 -0.000000 -0.000000 0.000002 -0.000000 -0.000000 0.000000 -0.000000 -0.000000 0.000000 -0.000000 -0.000000 0.000000 -0.000000 -0.000000 0.000000 -0.000000 -0.000000 0.000000 -0.000000 -0.000000 0.000000 -0.000000 -0.000000 0.000000 -0.000000 0.000002 0.000001 -0.000000 -0.000000 -0.000001 0.000000 
-0.691027 89.803696 2.475523 5.018428 -16.748097 0.499451 0.000000 -0.000001 0.000000 -39.699669 1.347426 11.281266 36.127401 5.361476 1.234770 -0.097279 0.604001 -7.639179 0.000000 -0.000000 -0.000000 -0.000000 0.000000 0.000001 -14.732926 -10.199346 -15.005719 32.776090 -4.326468 1.093780 -20.036584 -3.374077 13.648593 -0.000000 0.000002 0.000000 0.000002 0.000000 0.000000 22.975366 4.113776 -0.498955 3.917912 1.511228 -0.954552 3.876618 1.763601 -0.522799 -2.584986 0.283807 0.504721 -2.584966 0.283806 0.504723 -0.000001 -0.000001 0.000001 -2.584901 0.283812 0.504720 -2.585052 0.283806 0.504717 0.000001 0.000000 0.000000 -0.000001 -0.000001 0.000001 7.247631 -20.820462 7.822468 -34.749708 -4.975454 -84.169159 0.000012 -42.636882 -5.539604 -20.566364 -12.940883 -9.401708 -7.471167 1.860104 -7.166397 29.483352 22.703656 -5.390036 -0.000000 0.000002 -0.000004 -4.919219 10.112963 -60.687392 -1.057320 3.018651 -43.496806 -0.000002 -0.000002 -0.000004 -0.292602 16.675611 -71.101272 0.014737 0.020717 -63.927695 -0.000000 0.000002 0.000001 -9.213498 22.521304 -65.937984 0.011249 0.974345 -45.220756 -0.000000 0.000001 0.000002 -17.099440 22.128916 -40.655496 -1.013214 -1.445588 -67.905413 0.000000 -0.000005 -0.000001 -0.000001 0.000003 0.000000 -0.000001 0.000003 0.000000 -0.000002 0.000003 0.000001 0.000001 0.000000 0.000001 0.000001 0.000000 0.000001 0.000001 0.000000 0.000001 -0.000001 -0.000000 0.000001 13.735645 29.560700 -22.936441 -42.529071 -3.457417 80.951901 0.000006 59.293562 5.375709 -21.522116 14.072925 7.343446 9.347177 2.810555 -11.364526 16.169040 -43.266007 15.843583 -0.000001 -0.000004 -0.000001 17.076796 -0.396537 31.924332 -0.204412 -0.284208 112.811564 -0.000000 0.000002 0.000000 9.205464 -5.035875 102.738073 0.014966 -0.019179 61.018513 -0.000000 0.000001 0.000001 5.569133 -8.935194 107.329094 0.547968 -0.005770 41.263707 -0.000000 0.000001 -0.000000 6.511265 -17.148274 98.228010 0.007419 -0.015723 43.845771 -0.000002 0.000002 0.000000 -0.000000 0.000000 0.000002 -0.000000 -0.000002 0.000001 -0.000000 -0.000000 0.000003 0.000000 0.000000 0.000000 0.000000 0.000000 0.000000 0.000000 0.000000 0.000000 0.000000 -0.000000 0.000000 0.000002 -0.000000 -0.000000 0.000002 -0.000000 -0.000000 0.000002 -0.000000 -0.000000 0.000002 -0.000000 -0.000000 0.000002 -0.000000 -0.000000 0.000002 -0.000000 -0.000000 0.000002 -0.000000 -0.000000 0.000001 -0.000000 0.000000 0.000000 -0.000001 0.000000 
-0.514068 89.786224 2.375341 4.998756 -17.517234 0.594979 -0.000001 0.000001 -0.000000 -39.583429 1.328134 11.338219 36.441467 6.112218 1.133803 -0.360562 0.617903 -7.684538 -0.000000 0.000000 -0.000000 -0.000000 0.000000 0.000001 -15.516737 -10.167534 -15.286179 33.127360 -3.444575 0.822292 -19.817068 -3.339694 13.611054 0.000000 0.000001 0.000000 0.000002 -0.000002 0.000000 22.709986 4.064119 -0.542459 4.020577 1.667259 -1.003806 3.959216 2.006897 -0.370194 -2.610067 0.293247 0.537664 -2.610030 0.293238 0.537666 -0.000002 -0.000000 -0.000000 -2.610034 0.293247 0.537665 -2.610050 0.293248 0.537663 -0.000002 0.000001 -0.000000 -0.000002 -0.000000 -0.000000 6.963391 -20.767730 6.835770 -35.047220 -6.014853 -83.356462 0.000032 -42.346029 -5.821052 -21.475802 -13.967706 -7.328004 -7.471158 1.860101 -7.166407 28.655413 20.159983 -5.887091 0.000000 0.000002 -0.000001 -4.816983 9.347652 -52.745436 -1.181219 2.974791 -41.654295 -0.000003 0.000001 0.000000 -1.370548 16.333935 -63.632071 0.013016 0.019760 -58.994939 0.000001 -0.000000 -0.000001 -10.642446 21.786731 -60.373620 0.010440 0.973387 -42.049308 -0.000000 0.000001 0.000002 -17.099708 22.128927 -39.347941 -1.416681 -2.373568 -62.046060 0.000001 -0.000003 -0.000001 0.000002 -0.000002 0.000001 0.000002 -0.000002 0.000001 0.000001 -0.000001 0.000001 0.000000 0.000001 -0.000000 0.000000 0.000001 -0.000000 0.000000 0.000001 -0.000000 -0.000001 0.000001 -0.000000 13.716014 30.874207 -22.812478 -42.257755 -2.290634 79.058347 0.000001 59.341285 5.126972 -23.126793 13.260274 6.490085 9.347177 2.810551 -11.364531 16.169052 -43.266007 15.843590 0.000004 -0.000000 -0.000000 17.076795 -0.396543 31.924335 -0.204413 -0.284209 112.811571 -0.000000 -0.000002 0.000000 9.205466 -5.035873 102.738066 0.014966 -0.019179 61.018519 0.000000 0.000004 0.000000 5.569131 -8.935196 107.329101 0.547968 -0.005767 41.263707 -0.000001 -0.000003 -0.000000 6.511264 -17.148269 98.228010 0.007418 -0.015719 43.845764 0.000001 0.000003 -0.000000 -0.000002 -0.000002 0.000000 -0.000001 0.000001 -0.000003 -0.000002 -0.000002 0.000000 -0.000001 0.000000 -0.000000 -0.000001 0.000000 -0.000000 -0.000001 0.000000 -0.000000 -0.000001 -0.000000 -0.000000 -0.000003 0.000000 0.000000 -0.000003 0.000000 0.000000 -0.000003 0.000000 0.000000 -0.000003 0.000000 0.000000 -0.000003 0.000000 0.000000 -0.000003 0.000000 0.000000 -0.000003 0.000000 0.000000 0.000001 0.000001 -0.000000 -0.000001 0.000001 -0.000000 
